<svg width="13" height="14" viewBox="0 0 13 14" fill="none" xmlns="http://www.w3.org/2000/svg">
<path fill-rule="evenodd" clip-rule="evenodd" d="M11.1883 0.195313C11.9404 0.195313 12.5527 0.807649 12.5527 1.56641V13.507L11.1217 12.2424L10.3164 11.4969L9.46443 10.7049L9.81719 11.9362H2.26947C1.51737 11.9362 0.905029 11.3239 0.905029 10.5651V1.56641C0.905029 0.807649 1.51737 0.195312 2.26947 0.195312H11.1883V0.195313ZM8.61914 8.88783C10.0901 8.84124 10.6558 7.87614 10.6558 7.87614C10.6558 5.73296 9.69738 3.99579 9.69738 3.99579C8.73894 3.27696 7.82709 3.29693 7.82709 3.29693L7.73391 3.40342C8.8654 3.74953 9.39121 4.24871 9.39121 4.24871C8.69901 3.86933 8.02011 3.68297 7.38781 3.60975C6.90859 3.55651 6.44934 3.56982 6.04333 3.62307L5.93018 3.63638C5.69723 3.65634 5.13148 3.74287 4.41931 4.05569C4.17304 4.16884 4.02661 4.24871 4.02661 4.24871C4.02661 4.24871 4.57905 3.7229 5.7771 3.3768L5.71054 3.29693C5.71054 3.29693 4.79869 3.27696 3.84025 3.99579C3.84025 3.99579 2.88181 5.73296 2.88181 7.87614C2.88181 7.87614 3.4409 8.84124 4.91184 8.88783C4.91184 8.88783 5.15811 8.58832 5.35778 8.33539C4.51249 8.08247 4.19301 7.55001 4.19301 7.55001L4.37937 7.66316L4.406 7.68312L4.43207 7.6981L4.43983 7.70143L4.4659 7.7164C4.6323 7.80958 4.79869 7.8828 4.95177 7.9427C5.22466 8.04919 5.5508 8.15569 5.93018 8.2289C6.42937 8.32208 7.01508 8.35536 7.65404 8.23556C7.96687 8.18231 8.28635 8.08913 8.61914 7.94936C8.85209 7.86283 9.11167 7.73637 9.38456 7.55666C9.38456 7.55666 9.05177 8.10244 8.17985 8.34871C8.37953 8.60163 8.61914 8.88783 8.61914 8.88783ZM5.52418 5.77956C5.14479 5.77956 4.84528 6.11235 4.84528 6.51835C4.84528 6.92436 5.15145 7.25715 5.52418 7.25715C5.90356 7.25715 6.20307 6.92436 6.20307 6.51835C6.20973 6.11235 5.90356 5.77956 5.52418 5.77956ZM7.95356 5.77956C7.57417 5.77956 7.27466 6.11235 7.27466 6.51835C7.27466 6.92436 7.58083 7.25715 7.95356 7.25715C8.33294 7.25715 8.63245 6.92436 8.63245 6.51835C8.63245 6.11235 8.33294 5.77956 7.95356 5.77956Z" fill="white"/>
</svg>
