<svg width="14" height="14" viewBox="0 0 14 14" fill="none" xmlns="http://www.w3.org/2000/svg">
<path d="M6.99634 0.0947266C3.18509 0.0947266 0.0939941 3.18525 0.0939941 6.99707C0.0939941 10.0468 2.07151 12.634 4.81462 13.5468C5.15916 13.6107 5.27075 13.3967 5.27075 13.2149V11.9299C3.35075 12.3475 2.95099 11.1155 2.95099 11.1155C2.63693 10.3177 2.18425 10.1054 2.18425 10.1054C1.55787 9.6769 2.23199 9.6861 2.23199 9.6861C2.9251 9.73442 3.28978 10.3976 3.28978 10.3976C3.90524 11.4525 4.90435 11.1477 5.29836 10.9711C5.35991 10.5253 5.53879 10.2205 5.73666 10.0485C4.20376 9.87304 2.59207 9.28117 2.59207 6.637C2.59207 5.88291 2.86183 5.26746 3.30301 4.78429C3.23168 4.61001 2.99528 3.90769 3.37031 2.95747C3.37031 2.95747 3.9501 2.77226 5.26902 3.66496C5.81949 3.51196 6.40964 3.43546 6.99634 3.43258C7.58303 3.43546 8.17376 3.51196 8.72537 3.66496C10.0431 2.77226 10.6218 2.95747 10.6218 2.95747C10.9974 3.90827 10.761 4.61058 10.6897 4.78429C11.1326 5.26746 11.4 5.88349 11.4 6.637C11.4 9.28807 9.78546 9.87189 8.24854 10.0427C8.49587 10.2567 8.72192 10.6766 8.72192 11.3208V13.2149C8.72192 13.3984 8.83236 13.6141 9.18265 13.5462C11.9235 12.6323 13.8987 10.0456 13.8987 6.99707C13.8987 3.18525 10.8082 0.0947266 6.99634 0.0947266Z" fill="white"/>
</svg>
