<svg width="14" height="12" viewBox="0 0 14 12" fill="none" xmlns="http://www.w3.org/2000/svg">
<path fill-rule="evenodd" clip-rule="evenodd" d="M1.80385 2.86883C1.82049 2.7052 1.75782 2.5438 1.63579 2.43398L0.393371 0.936416V0.712891H4.25264L7.23557 7.25502L9.85796 0.712891H13.537V0.936416L12.4743 1.95531C12.3827 2.0252 12.3373 2.14001 12.3561 2.25372V9.74042C12.3373 9.85357 12.3827 9.96838 12.4743 10.0383L13.512 11.0572V11.2807H8.29163V11.0572L9.3671 10.0133C9.47248 9.90793 9.47248 9.87687 9.47248 9.71546V3.6642L6.48346 11.2563H6.07967L2.59922 3.6642V8.75259C2.57038 8.96613 2.64138 9.18189 2.79169 9.33608L4.18997 11.0322V11.2563H0.225311V11.0322L1.62359 9.33608C1.77335 9.18133 1.83991 8.96446 1.80385 8.75259V2.86883Z" fill="white"/>
</svg>
