<svg width="15" height="15" viewBox="0 0 15 15" fill="none" xmlns="http://www.w3.org/2000/svg">
<path d="M13.4732 0.549747C12.6238 0.195369 11.5049 0 10.3229 0C9.14091 0 8.02416 0.195369 7.17256 0.549747C6.18785 0.961107 5.64525 1.56132 5.64525 2.24077V5.95984C5.33037 5.93054 5.00695 5.9148 4.67764 5.9148C3.49567 5.9148 2.37892 6.11017 1.52732 6.46454C0.542607 6.8759 0 7.47612 0 8.15503V12.7592C0 13.4387 0.542607 14.0389 1.52732 14.4503C2.37678 14.8046 3.49567 15 4.67764 15C5.85962 15 6.97637 14.8046 7.82797 14.4503C8.81268 14.0389 9.35475 13.4387 9.35475 12.7592V11.5344C9.67122 11.5642 9.99625 11.5794 10.3229 11.5794C11.5049 11.5794 12.6216 11.384 13.4732 11.0291C14.4579 10.6183 15 10.0175 15 9.33864V2.24077C15 1.56132 14.4579 0.961107 13.4732 0.549747ZM7.53929 1.45333C8.27488 1.14616 9.26387 0.976845 10.3234 0.976845C11.383 0.976845 12.3714 1.14616 13.1076 1.45333C13.7945 1.74041 14.0383 2.0568 14.0383 2.24077C14.0383 2.42475 13.7945 2.74114 13.1076 3.02768C12.3714 3.33484 11.383 3.50416 10.3234 3.50416C9.26387 3.50416 8.27488 3.33484 7.53929 3.02768C6.85234 2.74114 6.60804 2.4242 6.60804 2.24077C6.60804 2.05734 6.85181 1.74041 7.53876 1.45333H7.53929ZM6.60804 6.0559C6.64706 6.07978 6.68662 6.10311 6.72725 6.12591L6.60804 6.1004V6.0559ZM1.89405 7.36813C2.62964 7.06096 3.61862 6.89164 4.67818 6.89164C5.73773 6.89164 6.72618 7.06096 7.46231 7.36813C8.14925 7.65521 8.39303 7.9716 8.39303 8.15503C8.39303 8.33846 8.14925 8.65539 7.46231 8.94247C6.72618 9.24964 5.73773 9.41896 4.67818 9.41896C3.61862 9.41896 2.62964 9.24964 1.89405 8.94247C1.2071 8.65539 0.962793 8.339 0.962793 8.15503C0.962793 7.97106 1.20656 7.65521 1.89351 7.36813H1.89405ZM0.962793 9.56006C1.14378 9.6697 1.33267 9.7653 1.52785 9.84606C2.37731 10.2004 3.4962 10.3958 4.67818 10.3958C5.86015 10.3958 6.9769 10.2004 7.8285 9.84606C8.02356 9.76542 8.21228 9.66981 8.39303 9.56006V10.4864C8.39303 10.6704 8.14925 10.9868 7.46231 11.2739C6.72618 11.581 5.73773 11.7504 4.67818 11.7504C3.61862 11.7504 2.62964 11.581 1.89405 11.2739C1.2071 10.9868 0.962793 10.6704 0.962793 10.4864V9.56006ZM7.46231 13.5467C6.72618 13.8538 5.73773 14.0232 4.67818 14.0232C3.61862 14.0232 2.62964 13.8538 1.89405 13.5467C1.2071 13.2596 0.962793 12.9432 0.962793 12.7592V11.8909C1.14368 12.0006 1.33259 12.096 1.52785 12.1764C2.37731 12.5313 3.4962 12.7267 4.67818 12.7267C5.86015 12.7267 6.9769 12.5313 7.8285 12.1764C8.02364 12.0961 8.21238 12.0007 8.39303 11.8909V12.7592C8.39249 12.9432 8.14872 13.2596 7.46177 13.5467H7.46231ZM13.1076 10.1277C12.3714 10.4349 11.383 10.6042 10.3234 10.6042C10.0001 10.6044 9.67694 10.5878 9.35528 10.5543V9.20731C9.67176 9.23716 9.99679 9.25181 10.3234 9.25181C11.5054 9.25181 12.6221 9.05644 13.4737 8.70206C13.6688 8.62142 13.8575 8.52582 14.0383 8.41606V9.33864C14.0377 9.52261 13.794 9.839 13.107 10.1261L13.1076 10.1277ZM10.3234 8.27659C10.0001 8.27678 9.67697 8.26029 9.35528 8.22721V8.15666C9.35528 7.58846 8.97519 7.07562 8.27435 6.68216C8.94817 6.82544 9.63499 6.8962 10.3234 6.89327C11.5054 6.89327 12.6221 6.6979 13.4737 6.34352C13.6688 6.26289 13.8575 6.16728 14.0383 6.05753V7.01321C14.0377 7.51465 12.5564 8.27496 10.3229 8.27496L10.3234 8.27659ZM13.1076 5.43994C12.3714 5.74711 11.383 5.91642 10.3234 5.91642C9.26387 5.91642 8.27488 5.74711 7.53929 5.43994C6.85234 5.15286 6.60804 4.83647 6.60804 4.6525V3.64526C6.78891 3.75512 6.97782 3.85073 7.1731 3.93126C8.02256 4.28564 9.14145 4.48101 10.3234 4.48101C11.5054 4.48101 12.6221 4.28564 13.4737 3.93126C13.6689 3.85084 13.8576 3.75523 14.0383 3.64526V4.65087C14.0377 4.83484 13.794 5.15232 13.107 5.43831L13.1076 5.43994Z" fill="white"/>
</svg>
