<svg width="16" height="13" viewBox="0 0 16 13" fill="none" xmlns="http://www.w3.org/2000/svg">
<path fill-rule="evenodd" clip-rule="evenodd" d="M11.7358 12.1835C11.9243 12.317 12.1673 12.3504 12.3839 12.2684C12.6005 12.1859 12.7598 12.0009 12.8078 11.7766C13.3166 9.3856 14.5507 3.33363 15.0138 1.15862C15.049 0.994694 14.9904 0.824323 14.8616 0.714841C14.7328 0.605359 14.5542 0.573744 14.395 0.632876C11.9401 1.54152 4.38 4.37811 1.28991 5.52152C1.09378 5.59412 0.966144 5.78264 0.972584 5.98931C0.97961 6.19657 1.11895 6.3763 1.31977 6.43661C2.70556 6.85112 4.52461 7.4278 4.52461 7.4278C4.52461 7.4278 5.37471 9.99507 5.8179 11.3007C5.87352 11.4646 6.00174 11.5934 6.17094 11.6379C6.33955 11.6818 6.51988 11.6356 6.64575 11.5167C7.35768 10.8446 8.45836 9.80538 8.45836 9.80538C8.45836 9.80538 10.5496 11.3387 11.7358 12.1835ZM5.28981 7.10345L6.27281 10.3458L6.49119 8.29254C6.49119 8.29254 10.2891 4.86697 12.4542 2.91444C12.5174 2.85706 12.5262 2.76105 12.4735 2.69372C12.4214 2.62639 12.3254 2.61058 12.2534 2.65625C9.74404 4.25867 5.28981 7.10345 5.28981 7.10345Z" fill="white"/>
</svg>
