<svg width="16" height="13" viewBox="0 0 16 13" fill="none" xmlns="http://www.w3.org/2000/svg">
<path d="M15.4645 2.26091C14.9177 2.50348 14.3299 2.66735 13.7132 2.74107C14.3427 2.36369 14.8263 1.76611 15.0539 1.05401C14.4647 1.40352 13.8121 1.65724 13.1174 1.79398C12.5613 1.2013 11.7687 0.831055 10.8917 0.831055C9.20763 0.831055 7.84221 2.19633 7.84221 3.88035C7.84221 4.11936 7.86919 4.35212 7.92121 4.57529C5.38685 4.44814 3.13996 3.23409 1.63593 1.38917C1.37344 1.83953 1.22302 2.36332 1.22302 2.92219C1.22302 3.98016 1.76138 4.91351 2.5796 5.46033C2.07975 5.4445 1.60955 5.30731 1.19843 5.07894C1.19808 5.09164 1.19808 5.10443 1.19808 5.11728C1.19808 6.59471 2.24922 7.8271 3.64422 8.10743C3.38835 8.17714 3.11895 8.21437 2.84085 8.21437C2.64436 8.21437 2.45337 8.19519 2.26713 8.15967C2.65521 9.37111 3.78133 10.2527 5.11577 10.2773C4.07214 11.0952 2.75732 11.5827 1.32858 11.5827C1.08244 11.5827 0.839723 11.5682 0.601166 11.5401C1.95069 12.4053 3.55355 12.9102 5.27562 12.9102C10.8845 12.9102 13.9518 8.26364 13.9518 4.23388C13.9518 4.10167 13.9489 3.9702 13.943 3.83933C14.5387 3.40948 15.0557 2.87247 15.4645 2.26091H15.4645Z" fill="white"/>
</svg>
